<mxfile host="Electron" agent="Mozilla/5.0 (Windows NT 10.0; Win64; x64) AppleWebKit/537.36 (KHTML, like Gecko) draw.io/26.0.16 Chrome/132.0.6834.196 Electron/34.2.0 Safari/537.36" version="26.0.16">
  <diagram name="Page-1" id="FkutZCSSlZmnl8l07zJk">
    <mxGraphModel dx="767" dy="520" grid="1" gridSize="10" guides="1" tooltips="1" connect="1" arrows="1" fold="1" page="1" pageScale="1" pageWidth="827" pageHeight="1169" math="0" shadow="0">
      <root>
        <mxCell id="0" />
        <mxCell id="1" parent="0" />
        <mxCell id="yXzJqOJTdhMxHHcbYdUT-3" value="" style="edgeStyle=orthogonalEdgeStyle;rounded=0;orthogonalLoop=1;jettySize=auto;html=1;" edge="1" parent="1" source="yXzJqOJTdhMxHHcbYdUT-1" target="yXzJqOJTdhMxHHcbYdUT-2">
          <mxGeometry relative="1" as="geometry" />
        </mxCell>
        <mxCell id="yXzJqOJTdhMxHHcbYdUT-8" style="edgeStyle=orthogonalEdgeStyle;rounded=0;orthogonalLoop=1;jettySize=auto;html=1;" edge="1" parent="1" source="yXzJqOJTdhMxHHcbYdUT-1" target="yXzJqOJTdhMxHHcbYdUT-9">
          <mxGeometry relative="1" as="geometry">
            <mxPoint x="210" y="370" as="targetPoint" />
            <Array as="points">
              <mxPoint x="190" y="360" />
            </Array>
          </mxGeometry>
        </mxCell>
        <mxCell id="yXzJqOJTdhMxHHcbYdUT-1" value="Début du jeu" style="rounded=0;whiteSpace=wrap;html=1;" vertex="1" parent="1">
          <mxGeometry x="110" y="200" width="120" height="60" as="geometry" />
        </mxCell>
        <mxCell id="yXzJqOJTdhMxHHcbYdUT-5" value="" style="edgeStyle=orthogonalEdgeStyle;rounded=0;orthogonalLoop=1;jettySize=auto;html=1;" edge="1" parent="1" source="yXzJqOJTdhMxHHcbYdUT-2" target="yXzJqOJTdhMxHHcbYdUT-4">
          <mxGeometry relative="1" as="geometry" />
        </mxCell>
        <mxCell id="yXzJqOJTdhMxHHcbYdUT-2" value="début timer si x jeu" style="whiteSpace=wrap;html=1;rounded=0;" vertex="1" parent="1">
          <mxGeometry x="310" y="200" width="120" height="60" as="geometry" />
        </mxCell>
        <mxCell id="yXzJqOJTdhMxHHcbYdUT-7" value="" style="edgeStyle=orthogonalEdgeStyle;rounded=0;orthogonalLoop=1;jettySize=auto;html=1;" edge="1" parent="1" source="yXzJqOJTdhMxHHcbYdUT-4" target="yXzJqOJTdhMxHHcbYdUT-6">
          <mxGeometry relative="1" as="geometry" />
        </mxCell>
        <mxCell id="yXzJqOJTdhMxHHcbYdUT-4" value="fin du jeu" style="whiteSpace=wrap;html=1;rounded=0;" vertex="1" parent="1">
          <mxGeometry x="510" y="200" width="120" height="60" as="geometry" />
        </mxCell>
        <mxCell id="yXzJqOJTdhMxHHcbYdUT-6" value="arrete timer" style="whiteSpace=wrap;html=1;rounded=0;" vertex="1" parent="1">
          <mxGeometry x="710" y="200" width="120" height="60" as="geometry" />
        </mxCell>
        <mxCell id="yXzJqOJTdhMxHHcbYdUT-13" value="" style="edgeStyle=orthogonalEdgeStyle;rounded=0;orthogonalLoop=1;jettySize=auto;html=1;" edge="1" parent="1" source="yXzJqOJTdhMxHHcbYdUT-9" target="yXzJqOJTdhMxHHcbYdUT-12">
          <mxGeometry relative="1" as="geometry" />
        </mxCell>
        <mxCell id="yXzJqOJTdhMxHHcbYdUT-9" value="limite de temps si x jeu" style="rounded=0;whiteSpace=wrap;html=1;" vertex="1" parent="1">
          <mxGeometry x="220" y="330" width="120" height="60" as="geometry" />
        </mxCell>
        <mxCell id="yXzJqOJTdhMxHHcbYdUT-12" value="Arrête temps après&lt;div&gt;chaque tour&lt;/div&gt;" style="whiteSpace=wrap;html=1;rounded=0;" vertex="1" parent="1">
          <mxGeometry x="420" y="330" width="120" height="60" as="geometry" />
        </mxCell>
      </root>
    </mxGraphModel>
  </diagram>
</mxfile>
